<?xml version="1.0" encoding="utf-8"?>
<!-- Generator: Adobe Illustrator 16.0.0, SVG Export Plug-In . SVG Version: 6.00 Build 0)  -->
<!DOCTYPE svg PUBLIC "-//W3C//DTD SVG 1.1//EN" "http://www.w3.org/Graphics/SVG/1.1/DTD/svg11.dtd">
<svg version="1.1" id="Layer_1" xmlns="http://www.w3.org/2000/svg" xmlns:xlink="http://www.w3.org/1999/xlink" x="0px" y="0px"
	 width="250px" height="50px" viewBox="0 0 250 50" enable-background="new 0 0 250 50" xml:space="preserve">
<g>
	<g>
		<path fill="#FFFFFF" stroke="#000000" stroke-miterlimit="10" d="M10.578,45.044h6.297c0.088,0.548,0.542,0.979,1.116,0.979
			h14.316c0.578,0,1.03-0.428,1.117-0.979h6.298c1.065,0,1.928-0.862,1.928-1.927H8.652C8.652,44.182,9.514,45.044,10.578,45.044z"
			/>
		<path fill="#FFFFFF" stroke="#000000" stroke-miterlimit="10" d="M49.234,25.232c-1.605-1.3-3.866-1.321-5.354-1.157
			c0.042-1.037,0.066-2.099,0.066-3.202H4.695c0,10.609,1.605,18.264,11.764,21.119h15.723c4.023-1.127,6.691-3.027,8.461-5.549
			c3.854-0.075,10.056-1.593,10.29-6.917C51.033,27.196,50.063,25.903,49.234,25.232z M42.259,33.399
			c0.737-1.897,1.176-4.031,1.418-6.378c1.042-0.172,2.837-0.28,3.744,0.458c0.167,0.138,0.686,0.558,0.625,1.924
			C47.924,32.161,44.502,33.086,42.259,33.399z"/>
		<path fill="#FFFFFF" stroke="#000000" stroke-miterlimit="10" d="M20.686,19.383c0,0,7.471-0.548,4.047-6.848
			c-2.75-5.057-2.122-8.024,1.396-10.705c0,0-11.522,2.935-4.803,12.018C23.791,17.806,20.686,19.383,20.686,19.383z"/>
		<path fill="#FFFFFF" stroke="#000000" stroke-miterlimit="10" d="M25.721,18.879c0,0,5.985-1.261,2.727-6.075
			c-1.182-2.087,0.448-2.833,0.448-2.833s-3.852,0.123-2.226,3.433C27.973,16.066,27.586,17.578,25.721,18.879z"/>
	</g>
</g>
<g>
	<path fill="#FFFFFF" stroke="#000000" stroke-miterlimit="10" d="M55.063,38.234v-7.118l13.215-6.796l-13.168-6.839l-0.047-7.067
		l20.789,10.922v6L55.063,38.234z"/>
	<path fill="#FFFFFF" stroke="#000000" stroke-miterlimit="10" d="M77.727,43.039h24v4.266h-24V43.039z"/>
	<path fill="#FFFFFF" stroke="#000000" stroke-miterlimit="10" d="M120.313,28.672l6.492,0.398
		c-0.234,3.469-1.336,6.293-3.305,8.473s-4.57,3.27-7.805,3.27c-3.938,0-6.938-1.461-9-4.383s-3.094-6.945-3.094-12.07
		c0-5.172,1.023-9.219,3.07-12.141s5.086-4.383,9.117-4.383c6.672,0,10.305,4.125,10.898,12.375l-6.422,0.469
		c-0.172-4.75-1.656-7.125-4.453-7.125c-1.469,0-2.637,0.766-3.504,2.297s-1.301,4.5-1.301,8.906c0,3.938,0.398,6.645,1.195,8.121
		s1.992,2.215,3.586,2.215C118.352,35.094,119.859,32.953,120.313,28.672z"/>
	<path fill="#FFFFFF" stroke="#000000" stroke-miterlimit="10" d="M153.008,24.313c0,11-3.867,16.5-11.602,16.5
		c-3.844,0-6.742-1.402-8.695-4.207s-2.93-6.902-2.93-12.293c0-10.984,3.867-16.477,11.602-16.477c3.781,0,6.664,1.375,8.648,4.125
		S153.008,18.828,153.008,24.313z M145.602,24.313c0-4.313-0.336-7.184-1.008-8.613s-1.742-2.145-3.211-2.145
		c-1.453,0-2.516,0.719-3.188,2.156s-1.008,4.305-1.008,8.602c0,4.219,0.332,7.07,0.996,8.555s1.73,2.227,3.199,2.227
		c1.453,0,2.52-0.711,3.199-2.133S145.602,28.656,145.602,24.313z"/>
	<path fill="#FFFFFF" stroke="#000000" stroke-miterlimit="10" d="M157.906,8.328h18.984v5.484h-11.953v8.367h9.211v5.484h-9.211
		V40.32h-7.031V8.328z"/>
	<path fill="#FFFFFF" stroke="#000000" stroke-miterlimit="10" d="M179.164,8.328h18.984v5.484h-11.953v8.367h9.211v5.484h-9.211
		V40.32h-7.031V8.328z"/>
	<path fill="#FFFFFF" stroke="#000000" stroke-miterlimit="10" d="M200.422,8.328h19.453v5.484h-12.422v7.43h9.656v5.484h-9.656
		v7.875h12.422v5.719h-19.453V8.328z"/>
	<path fill="#FFFFFF" stroke="#000000" stroke-miterlimit="10" d="M223.32,8.328h19.453v5.484h-12.422v7.43h9.656v5.484h-9.656
		v7.875h12.422v5.719H223.32V8.328z"/>
</g>
</svg>
